<mxfile host="app.diagrams.net" modified="2021-11-07T01:29:12.072Z" agent="5.0 (Windows NT 10.0; Win64; x64) AppleWebKit/537.36 (KHTML, like Gecko) Chrome/95.0.4638.69 Safari/537.36" etag="Cige2DS-1hTjEBDO7Rgx" version="15.6.8" type="github">
  <diagram id="w_ZyzO9597G_cVP9t28d" name="Page-1">
    <mxGraphModel dx="1422" dy="794" grid="1" gridSize="10" guides="1" tooltips="1" connect="1" arrows="1" fold="1" page="1" pageScale="1" pageWidth="850" pageHeight="1100" math="0" shadow="0">
      <root>
        <mxCell id="0" />
        <mxCell id="1" parent="0" />
        <mxCell id="sxa_kHmhTXQnoS3YHy6c-1" value="" style="rounded=0;whiteSpace=wrap;html=1;fillColor=#d5e8d4;strokeColor=#82b366;opacity=40;" vertex="1" parent="1">
          <mxGeometry x="150" y="250" width="560" height="580" as="geometry" />
        </mxCell>
        <mxCell id="sxa_kHmhTXQnoS3YHy6c-2" value="" style="endArrow=none;html=1;rounded=0;entryX=0.5;entryY=0;entryDx=0;entryDy=0;exitX=0.5;exitY=1;exitDx=0;exitDy=0;" edge="1" parent="1" source="sxa_kHmhTXQnoS3YHy6c-1" target="sxa_kHmhTXQnoS3YHy6c-1">
          <mxGeometry width="50" height="50" relative="1" as="geometry">
            <mxPoint x="400" y="540" as="sourcePoint" />
            <mxPoint x="450" y="490" as="targetPoint" />
          </mxGeometry>
        </mxCell>
        <mxCell id="sxa_kHmhTXQnoS3YHy6c-3" value="" style="endArrow=none;html=1;rounded=0;exitX=0;exitY=0.5;exitDx=0;exitDy=0;entryX=1;entryY=0.5;entryDx=0;entryDy=0;" edge="1" parent="1" source="sxa_kHmhTXQnoS3YHy6c-1" target="sxa_kHmhTXQnoS3YHy6c-1">
          <mxGeometry width="50" height="50" relative="1" as="geometry">
            <mxPoint x="400" y="540" as="sourcePoint" />
            <mxPoint x="450" y="490" as="targetPoint" />
          </mxGeometry>
        </mxCell>
        <mxCell id="sxa_kHmhTXQnoS3YHy6c-5" value="Public" style="text;html=1;strokeColor=none;fillColor=none;align=center;verticalAlign=middle;whiteSpace=wrap;rounded=0;opacity=50;" vertex="1" parent="1">
          <mxGeometry x="30" y="390" width="60" height="30" as="geometry" />
        </mxCell>
        <mxCell id="sxa_kHmhTXQnoS3YHy6c-6" value="Private" style="text;html=1;strokeColor=none;fillColor=none;align=center;verticalAlign=middle;whiteSpace=wrap;rounded=0;opacity=50;" vertex="1" parent="1">
          <mxGeometry x="30" y="670" width="60" height="30" as="geometry" />
        </mxCell>
        <mxCell id="sxa_kHmhTXQnoS3YHy6c-7" value="US West&amp;nbsp; 2 192.168.1.0/24" style="text;html=1;strokeColor=none;fillColor=none;align=center;verticalAlign=middle;whiteSpace=wrap;rounded=0;opacity=50;" vertex="1" parent="1">
          <mxGeometry x="150" y="220" width="190" height="30" as="geometry" />
        </mxCell>
        <mxCell id="sxa_kHmhTXQnoS3YHy6c-8" value="192.168.1.0/26" style="text;html=1;strokeColor=none;fillColor=none;align=center;verticalAlign=middle;whiteSpace=wrap;rounded=0;opacity=50;" vertex="1" parent="1">
          <mxGeometry x="150" y="510" width="140" height="30" as="geometry" />
        </mxCell>
        <mxCell id="sxa_kHmhTXQnoS3YHy6c-9" value="192.168.1.64/26" style="text;html=1;strokeColor=none;fillColor=none;align=center;verticalAlign=middle;whiteSpace=wrap;rounded=0;opacity=50;" vertex="1" parent="1">
          <mxGeometry x="430" y="510" width="140" height="30" as="geometry" />
        </mxCell>
        <mxCell id="sxa_kHmhTXQnoS3YHy6c-10" value="192.168.1.128/26" style="text;html=1;strokeColor=none;fillColor=none;align=center;verticalAlign=middle;whiteSpace=wrap;rounded=0;opacity=50;" vertex="1" parent="1">
          <mxGeometry x="150" y="800" width="140" height="30" as="geometry" />
        </mxCell>
        <mxCell id="sxa_kHmhTXQnoS3YHy6c-11" value="192.168.1.192/26" style="text;html=1;strokeColor=none;fillColor=none;align=center;verticalAlign=middle;whiteSpace=wrap;rounded=0;opacity=50;" vertex="1" parent="1">
          <mxGeometry x="430" y="800" width="140" height="30" as="geometry" />
        </mxCell>
      </root>
    </mxGraphModel>
  </diagram>
</mxfile>
